<svg xmlns="http://www.w3.org/2000/svg" width="1062.447" height="1209.6" viewBox="0 0 1062.447 1209.6"><g transform="translate(-119.762 -183.294)"><rect width="685.263" height="685.263" transform="translate(650.986 377.116) rotate(45)" fill="#10a8a4" style="mix-blend-mode:lighten;isolation:isolate"/><g transform="translate(644.133 280.205) rotate(45)" fill="none" stroke="#a100ff" stroke-width="8" style="mix-blend-mode:overlay;isolation:isolate"><rect width="685.263" height="685.263" stroke="none"/><rect x="4" y="4" width="677.263" height="677.263" fill="none"/></g><path d="M0,0H685.263V685.263H0Z" transform="translate(650.986 183.294) rotate(45)" fill="rgba(0,34,255,0.82)" opacity="0.7"/><path d="M205.162,394.113A205.269,205.269,0,0,1,0,188.59,205.72,205.72,0,0,1,123.475,0,205.31,205.31,0,0,0,70.746,137.563c0,113.326,92.034,205.524,205.16,205.524a203.446,203.446,0,0,0,81.688-16.937,205.777,205.777,0,0,1-67.61,49.631,203.824,203.824,0,0,1-40.761,13.582A206.1,206.1,0,0,1,205.162,394.113Z" transform="matrix(0.966, -0.259, 0.259, 0.966, 441.613, 577.821)" fill="#fff" style="mix-blend-mode:exclusion;isolation:isolate"/></g></svg>